<svg width="24" height="24" viewBox="0 0 24 24" fill="none" xmlns="http://www.w3.org/2000/svg">
<path d="M19.455 8.369C18.917 7.621 17.677 6.084 15.774 3.8C14.948 2.809 14.239 1.968 13.89 1.555C13.7278 1.36258 13.5652 1.17058 13.402 0.979L13.195 0.734L13.082 0.601L13.06 0.569L13.05 0.564L12.57 0L11.961 0.488C10.406 1.734 9.13301 3.339 8.28001 5.128C7.75701 6.192 7.41601 7.233 7.23701 8.304C7.19001 8.545 7.14901 8.793 7.11601 9.042C6.90701 9.025 6.69501 9.014 6.48401 9.009C6.46601 9.008 6.44901 9.007 6.42501 9.006C5.65542 8.97911 4.88631 9.07154 4.14501 9.28L3.82801 9.369L3.66501 9.655C2.90001 10.997 2.46701 12.524 2.41301 14.071C2.34301 16.081 2.89001 18.025 3.99601 19.696C5.07801 21.329 6.60601 22.578 8.41601 23.307L8.65201 23.402L8.72301 23.427L8.72601 23.426C9.67054 23.7682 10.663 23.9599 11.667 23.994C11.781 23.998 11.895 24 12.009 24C13.282 24 14.522 23.751 15.699 23.258L15.707 23.262L16.02 23.117C17.6076 22.3826 18.9652 21.2297 19.947 19.782C20.957 18.292 21.524 16.548 21.588 14.74C21.663 12.579 20.945 10.436 19.455 8.369ZM12.372 15.064C12.7 16.308 12.636 17.504 12.181 18.622C11.046 17.502 10.214 16.27 9.70601 14.957C9.16301 13.553 8.83601 12.217 8.73201 10.982C9.21201 11.139 9.65401 11.348 10.047 11.604C11.179 12.341 11.961 13.505 12.372 15.064ZM12.579 21.086C13.061 21.454 13.569 21.798 14.092 22.114C13.321 22.324 12.527 22.416 11.723 22.387C11.5985 22.3826 11.4742 22.3752 11.35 22.365C11.808 21.971 12.219 21.542 12.578 21.086H12.579ZM13.926 14.655C13.41 12.698 12.399 11.218 10.924 10.257C10.277 9.836 9.53901 9.516 8.73001 9.307C8.74101 9.173 8.75601 9.039 8.77301 8.907C8.78701 8.794 8.80301 8.691 8.81901 8.594C8.95201 7.905 9.15101 7.224 9.40801 6.569C9.50701 6.319 9.61401 6.07 9.72901 5.829L9.73301 5.821C9.91001 5.463 10.109 5.102 10.343 4.716L10.435 4.564L10.432 4.563C10.976 3.712 11.629 2.936 12.374 2.252L12.662 2.593C13.334 3.389 13.966 4.141 14.54 4.83C15.831 6.379 17.506 8.413 18.152 9.31C19.429 11.081 20.045 12.889 19.982 14.685C19.933 16.08 19.521 17.44 18.787 18.618C18.093 19.734 17.126 20.668 15.987 21.326C15.351 21.008 14.428 20.487 13.448 19.727C14.238 18.152 14.4 16.447 13.927 14.655H13.926ZM11.351 20.052C10.626 20.991 9.76401 21.602 9.26101 21.908C9.18001 21.879 9.09801 21.848 9.01801 21.815L8.95301 21.789C7.46301 21.173 6.20601 20.133 5.31801 18.779C4.41101 17.395 3.96201 15.786 4.02001 14.126C4.06101 12.936 4.35801 11.799 4.90201 10.747C5.21801 10.677 5.54001 10.633 5.86201 10.616L5.94601 10.614C6.10801 10.611 6.27001 10.611 6.42401 10.614C6.65101 10.625 6.87801 10.649 7.10101 10.684C7.17401 12.197 7.54601 13.829 8.20601 15.536C8.84301 17.18 9.90001 18.698 11.35 20.051L11.351 20.052Z" fill="#FFCA28"/>
</svg>
